<svg xmlns="http://www.w3.org/2000/svg" xmlns:xlink="http://www.w3.org/1999/xlink" zoomAndPan="magnify" preserveAspectRatio="xMidYMid meet" version="1.0" viewBox="94.75 97.02 187.83 50.96"><defs><g/><clipPath id="c979f2ab14"><path d="M 268.136719 119.367188 L 282.574219 119.367188 L 282.574219 133.804688 L 268.136719 133.804688 Z M 268.136719 119.367188 " clip-rule="nonzero"/></clipPath><clipPath id="963a1bca6b"><path d="M 275.355469 119.367188 C 271.367188 119.367188 268.136719 122.601562 268.136719 126.585938 C 268.136719 130.574219 271.367188 133.804688 275.355469 133.804688 C 279.339844 133.804688 282.574219 130.574219 282.574219 126.585938 C 282.574219 122.601562 279.339844 119.367188 275.355469 119.367188 Z M 275.355469 119.367188 " clip-rule="nonzero"/></clipPath></defs><g clip-path="url(#c979f2ab14)"><g clip-path="url(#963a1bca6b)"><path fill="#a7db28" d="M 268.136719 119.367188 L 282.574219 119.367188 L 282.574219 133.804688 L 268.136719 133.804688 Z M 268.136719 119.367188 " fill-opacity="1" fill-rule="nonzero"/></g></g><g fill="#a7db28" fill-opacity="0.4"><g transform="translate(98.510763, 132.457052)"><g><path d="M 10.515625 0 L 13.84375 -7.171875 L 24.296875 -7.171875 L 24.296875 0 Z M 0.734375 -25.34375 L 0.734375 -32.453125 L 24.96875 -32.453125 L 21.640625 -25.34375 Z M 21.015625 -24.359375 L 9.453125 0 L -0.1875 0 L 12.046875 -24.359375 Z M 21.015625 -24.359375 "/></g></g></g><g fill="#a7db28" fill-opacity="0.4"><g transform="translate(117.589333, 132.457052)"><g/></g></g><g fill="#a7db28" fill-opacity="0.4"><g transform="translate(126.471218, 132.457052)"><g><path d="M 20.09375 -32.453125 L 20.15625 -32.453125 L 31.28125 0 L 23.359375 0 L 16.140625 -20.953125 Z M 10.265625 -6.671875 L 7.96875 0 L 0.125 0 L 11.25 -32.453125 L 19.09375 -32.453125 L 12.484375 -13.171875 L 17.796875 -13.171875 L 20.09375 -6.671875 Z M 10.265625 -6.671875 "/></g></g></g><g fill="#a7db28" fill-opacity="0.4"><g transform="translate(151.853193, 132.457052)"><g/></g></g><g fill="#a7db28" fill-opacity="0.4"><g transform="translate(160.735078, 132.457052)"><g><path d="M 9.765625 -32.453125 L 23.984375 0 L 16.5625 0 L 9.265625 -16.875 L 9.265625 -32.453125 Z M 1.296875 0 L 1.296875 -32.453125 L 8.34375 -32.453125 L 8.34375 0 Z M 17.984375 -16.078125 L 17.984375 -32.453125 L 25.03125 -32.453125 L 25.03125 0 Z M 17.984375 -16.078125 "/></g></g></g><g fill="#a7db28" fill-opacity="0.4"><g transform="translate(181.111408, 132.457052)"><g/></g></g><g fill="#a7db28" fill-opacity="0.4"><g transform="translate(189.993293, 132.457052)"><g><path d="M 13.71875 -32.578125 L 13.71875 -25.40625 C 12.15625 -25.070312 10.835938 -24.039062 9.765625 -22.3125 C 8.691406 -20.582031 8.15625 -18.539062 8.15625 -16.1875 L 0.5625 -16.1875 C 0.5625 -20.519531 1.828125 -24.257812 4.359375 -27.40625 C 6.890625 -30.5625 10.007812 -32.285156 13.71875 -32.578125 Z M 19.25 -9.640625 C 20.507812 -11.453125 21.140625 -13.632812 21.140625 -16.1875 C 21.140625 -18.75 20.507812 -20.9375 19.25 -22.75 C 18 -24.5625 16.46875 -25.46875 14.65625 -25.46875 L 14.65625 -32.640625 C 18.5625 -32.640625 21.882812 -31.03125 24.625 -27.8125 C 27.375 -24.601562 28.75 -20.726562 28.75 -16.1875 C 28.75 -11.65625 27.375 -7.789062 24.625 -4.59375 C 21.882812 -1.40625 18.5625 0.1875 14.65625 0.1875 C 10.90625 0.1875 7.664062 -1.316406 4.9375 -4.328125 C 2.21875 -7.335938 0.757812 -11.003906 0.5625 -15.328125 L 8.21875 -15.328125 C 8.382812 -12.984375 9.082031 -10.992188 10.3125 -9.359375 C 11.550781 -7.734375 13 -6.921875 14.65625 -6.921875 C 16.46875 -6.921875 18 -7.828125 19.25 -9.640625 Z M 19.25 -9.640625 "/></g></g></g><g fill="#a7db28" fill-opacity="0.4"><g transform="translate(213.335932, 132.457052)"><g/></g></g><g fill="#a7db28" fill-opacity="0.4"><g transform="translate(222.217816, 132.457052)"><g><path d="M 0.125 -32.453125 L 7.96875 -32.453125 L 19.53125 0 L 11.75 0 Z M 23.546875 -32.453125 L 31.28125 -32.453125 L 20.03125 -1.359375 L 16.25 -11.9375 Z M 23.546875 -32.453125 "/></g></g></g><g fill="#a7db28" fill-opacity="0.4"><g transform="translate(247.599792, 132.457052)"><g/></g></g><g fill="#a7db28" fill-opacity="0.4"><g transform="translate(256.481677, 132.457052)"><g><path d="M 1.296875 0 L 1.296875 -32.453125 L 8.71875 -32.453125 L 8.71875 0 Z M 1.296875 0 "/></g></g></g><g fill="#000000" fill-opacity="1"><g transform="translate(95.713527, 129.659816)"><g><path d="M 10.515625 0 L 13.84375 -7.171875 L 24.296875 -7.171875 L 24.296875 0 Z M 0.734375 -25.34375 L 0.734375 -32.453125 L 24.96875 -32.453125 L 21.640625 -25.34375 Z M 21.015625 -24.359375 L 9.453125 0 L -0.1875 0 L 12.046875 -24.359375 Z M 21.015625 -24.359375 "/></g></g></g><g fill="#000000" fill-opacity="1"><g transform="translate(114.792097, 129.659816)"><g/></g></g><g fill="#000000" fill-opacity="1"><g transform="translate(123.673982, 129.659816)"><g><path d="M 20.09375 -32.453125 L 20.15625 -32.453125 L 31.28125 0 L 23.359375 0 L 16.140625 -20.953125 Z M 10.265625 -6.671875 L 7.96875 0 L 0.125 0 L 11.25 -32.453125 L 19.09375 -32.453125 L 12.484375 -13.171875 L 17.796875 -13.171875 L 20.09375 -6.671875 Z M 10.265625 -6.671875 "/></g></g></g><g fill="#000000" fill-opacity="1"><g transform="translate(149.055957, 129.659816)"><g/></g></g><g fill="#000000" fill-opacity="1"><g transform="translate(157.937842, 129.659816)"><g><path d="M 9.765625 -32.453125 L 23.984375 0 L 16.5625 0 L 9.265625 -16.875 L 9.265625 -32.453125 Z M 1.296875 0 L 1.296875 -32.453125 L 8.34375 -32.453125 L 8.34375 0 Z M 17.984375 -16.078125 L 17.984375 -32.453125 L 25.03125 -32.453125 L 25.03125 0 Z M 17.984375 -16.078125 "/></g></g></g><g fill="#000000" fill-opacity="1"><g transform="translate(178.314172, 129.659816)"><g/></g></g><g fill="#000000" fill-opacity="1"><g transform="translate(187.196057, 129.659816)"><g><path d="M 13.71875 -32.578125 L 13.71875 -25.40625 C 12.15625 -25.070312 10.835938 -24.039062 9.765625 -22.3125 C 8.691406 -20.582031 8.15625 -18.539062 8.15625 -16.1875 L 0.5625 -16.1875 C 0.5625 -20.519531 1.828125 -24.257812 4.359375 -27.40625 C 6.890625 -30.5625 10.007812 -32.285156 13.71875 -32.578125 Z M 19.25 -9.640625 C 20.507812 -11.453125 21.140625 -13.632812 21.140625 -16.1875 C 21.140625 -18.75 20.507812 -20.9375 19.25 -22.75 C 18 -24.5625 16.46875 -25.46875 14.65625 -25.46875 L 14.65625 -32.640625 C 18.5625 -32.640625 21.882812 -31.03125 24.625 -27.8125 C 27.375 -24.601562 28.75 -20.726562 28.75 -16.1875 C 28.75 -11.65625 27.375 -7.789062 24.625 -4.59375 C 21.882812 -1.40625 18.5625 0.1875 14.65625 0.1875 C 10.90625 0.1875 7.664062 -1.316406 4.9375 -4.328125 C 2.21875 -7.335938 0.757812 -11.003906 0.5625 -15.328125 L 8.21875 -15.328125 C 8.382812 -12.984375 9.082031 -10.992188 10.3125 -9.359375 C 11.550781 -7.734375 13 -6.921875 14.65625 -6.921875 C 16.46875 -6.921875 18 -7.828125 19.25 -9.640625 Z M 19.25 -9.640625 "/></g></g></g><g fill="#000000" fill-opacity="1"><g transform="translate(210.538696, 129.659816)"><g/></g></g><g fill="#000000" fill-opacity="1"><g transform="translate(219.420581, 129.659816)"><g><path d="M 0.125 -32.453125 L 7.96875 -32.453125 L 19.53125 0 L 11.75 0 Z M 23.546875 -32.453125 L 31.28125 -32.453125 L 20.03125 -1.359375 L 16.25 -11.9375 Z M 23.546875 -32.453125 "/></g></g></g><g fill="#000000" fill-opacity="1"><g transform="translate(244.802556, 129.659816)"><g/></g></g><g fill="#000000" fill-opacity="1"><g transform="translate(253.684441, 129.659816)"><g><path d="M 1.296875 0 L 1.296875 -32.453125 L 8.71875 -32.453125 L 8.71875 0 Z M 1.296875 0 "/></g></g></g><g fill="#a7db28" fill-opacity="1"><g transform="translate(94.857808, 147.980409)"><g><path d="M 7.421875 -4.1875 C 7.171875 -4.851562 6.914062 -5.519531 6.65625 -6.1875 C 6.40625 -6.863281 6.15625 -7.539062 5.90625 -8.21875 C 5.625 -7.539062 5.34375 -6.863281 5.0625 -6.1875 C 4.789062 -5.519531 4.515625 -4.851562 4.234375 -4.1875 Z M -0.109375 0 L -0.109375 -1.28125 L 1.203125 -1.28125 C 1.859375 -2.75 2.519531 -4.210938 3.1875 -5.671875 C 3.863281 -7.140625 4.523438 -8.617188 5.171875 -10.109375 L 6.734375 -10.109375 C 7.316406 -8.628906 7.90625 -7.15625 8.5 -5.6875 C 9.09375 -4.21875 9.679688 -2.75 10.265625 -1.28125 L 11.5625 -1.28125 L 11.5625 0 L 7.265625 0 L 7.265625 -1.28125 L 8.515625 -1.28125 C 8.421875 -1.539062 8.320312 -1.800781 8.21875 -2.0625 C 8.125 -2.320312 8.023438 -2.582031 7.921875 -2.84375 L 3.6875 -2.84375 C 3.582031 -2.582031 3.472656 -2.320312 3.359375 -2.0625 C 3.242188 -1.800781 3.132812 -1.539062 3.03125 -1.28125 L 4.1875 -1.28125 L 4.1875 0 Z M -0.109375 0 "/></g></g></g><g fill="#a7db28" fill-opacity="1"><g transform="translate(107.451246, 147.980409)"><g><path d="M 0.890625 0 L 0.890625 -1.28125 L 2.109375 -1.28125 L 2.109375 -8.828125 L 0.890625 -8.828125 L 0.890625 -10.109375 L 5.71875 -10.109375 C 7.46875 -10.109375 8.8125 -9.679688 9.75 -8.828125 C 10.695312 -7.972656 11.171875 -6.679688 11.171875 -4.953125 C 11.171875 -3.296875 10.703125 -2.054688 9.765625 -1.234375 C 8.835938 -0.410156 7.519531 0 5.8125 0 Z M 5.625 -8.828125 L 3.8125 -8.828125 L 3.8125 -1.28125 L 5.953125 -1.28125 C 7.128906 -1.28125 8.007812 -1.585938 8.59375 -2.203125 C 9.1875 -2.828125 9.484375 -3.726562 9.484375 -4.90625 C 9.484375 -6.1875 9.160156 -7.160156 8.515625 -7.828125 C 7.867188 -8.492188 6.90625 -8.828125 5.625 -8.828125 Z M 5.625 -8.828125 "/></g></g></g><g fill="#a7db28" fill-opacity="1"><g transform="translate(120.254569, 147.980409)"><g><path d="M 4.34375 -1.28125 L 4.34375 0 L 0.3125 0 L 0.3125 -1.28125 L 1.59375 -1.28125 L 2.21875 -8.828125 L 1.109375 -8.828125 L 1.125 -9.484375 L 1.125 -10.109375 L 3.9375 -10.109375 C 4.5 -8.722656 5.054688 -7.34375 5.609375 -5.96875 C 6.171875 -4.59375 6.738281 -3.210938 7.3125 -1.828125 L 10.625 -10.109375 L 13.5 -10.109375 L 13.5 -8.828125 L 12.359375 -8.828125 C 12.492188 -7.566406 12.617188 -6.304688 12.734375 -5.046875 C 12.859375 -3.785156 12.984375 -2.53125 13.109375 -1.28125 L 14.328125 -1.28125 L 14.328125 0 L 10.296875 0 L 10.296875 -1.28125 L 11.40625 -1.28125 C 11.332031 -2.238281 11.257812 -3.195312 11.1875 -4.15625 C 11.113281 -5.113281 11.039062 -6.070312 10.96875 -7.03125 C 10.5 -5.851562 10.03125 -4.675781 9.5625 -3.5 C 9.101562 -2.332031 8.640625 -1.164062 8.171875 0 L 6.453125 0 L 3.640625 -6.96875 C 3.566406 -6.019531 3.488281 -5.070312 3.40625 -4.125 C 3.332031 -3.175781 3.253906 -2.226562 3.171875 -1.28125 Z M 4.34375 -1.28125 "/></g></g></g><g fill="#a7db28" fill-opacity="1"><g transform="translate(135.702415, 147.980409)"><g><path d="M 0.609375 0 L 0.609375 -1.28125 L 1.828125 -1.28125 L 1.828125 -8.828125 L 0.609375 -8.828125 L 0.609375 -10.109375 L 4.78125 -10.109375 L 4.78125 -8.828125 L 3.53125 -8.828125 L 3.53125 -1.28125 L 4.78125 -1.28125 L 4.78125 0 Z M 0.609375 0 "/></g></g></g><g fill="#a7db28" fill-opacity="1"><g transform="translate(141.915418, 147.980409)"><g><path d="M 4.703125 -1.28125 L 4.703125 0 L 0.59375 0 L 0.609375 -0.640625 L 0.609375 -1.28125 L 1.8125 -1.28125 L 1.8125 -8.828125 L 0.609375 -8.828125 L 0.609375 -10.109375 L 3.671875 -10.109375 C 4.679688 -8.785156 5.691406 -7.457031 6.703125 -6.125 C 7.722656 -4.800781 8.742188 -3.476562 9.765625 -2.15625 L 9.765625 -8.828125 L 8.5625 -8.828125 L 8.5625 -10.109375 L 12.578125 -10.109375 L 12.578125 -8.828125 L 11.453125 -8.828125 L 11.453125 0 L 9.484375 0 C 8.484375 -1.300781 7.488281 -2.597656 6.5 -3.890625 C 5.507812 -5.179688 4.515625 -6.472656 3.515625 -7.765625 L 3.515625 -1.28125 Z M 4.703125 -1.28125 "/></g></g></g><g fill="#a7db28" fill-opacity="1"><g transform="translate(155.796145, 147.980409)"><g/></g></g><g fill="#a7db28" fill-opacity="1"><g transform="translate(161.197601, 147.980409)"><g><path d="M 5.328125 -4.8125 C 5.953125 -4.8125 6.457031 -4.984375 6.84375 -5.328125 C 7.226562 -5.671875 7.421875 -6.160156 7.421875 -6.796875 C 7.421875 -7.484375 7.164062 -7.992188 6.65625 -8.328125 C 6.15625 -8.660156 5.523438 -8.828125 4.765625 -8.828125 L 3.8125 -8.828125 L 3.8125 -5.09375 C 4.050781 -5 4.289062 -4.925781 4.53125 -4.875 C 4.78125 -4.832031 5.046875 -4.8125 5.328125 -4.8125 Z M 0.890625 0 L 0.890625 -1.28125 L 2.109375 -1.28125 L 2.109375 -8.828125 L 0.890625 -8.828125 L 0.890625 -10.109375 L 4.984375 -10.109375 C 5.773438 -10.109375 6.476562 -9.984375 7.09375 -9.734375 C 7.707031 -9.484375 8.191406 -9.109375 8.546875 -8.609375 C 8.910156 -8.109375 9.09375 -7.488281 9.09375 -6.75 C 9.09375 -5.6875 8.765625 -4.894531 8.109375 -4.375 C 7.453125 -3.851562 6.582031 -3.582031 5.5 -3.5625 C 4.925781 -3.5625 4.363281 -3.644531 3.8125 -3.8125 L 3.8125 -1.28125 L 5.0625 -1.28125 L 5.0625 0 Z M 0.890625 0 "/></g></g></g><g fill="#a7db28" fill-opacity="1"><g transform="translate(171.706201, 147.980409)"><g><path d="M 7.421875 -4.1875 C 7.171875 -4.851562 6.914062 -5.519531 6.65625 -6.1875 C 6.40625 -6.863281 6.15625 -7.539062 5.90625 -8.21875 C 5.625 -7.539062 5.34375 -6.863281 5.0625 -6.1875 C 4.789062 -5.519531 4.515625 -4.851562 4.234375 -4.1875 Z M -0.109375 0 L -0.109375 -1.28125 L 1.203125 -1.28125 C 1.859375 -2.75 2.519531 -4.210938 3.1875 -5.671875 C 3.863281 -7.140625 4.523438 -8.617188 5.171875 -10.109375 L 6.734375 -10.109375 C 7.316406 -8.628906 7.90625 -7.15625 8.5 -5.6875 C 9.09375 -4.21875 9.679688 -2.75 10.265625 -1.28125 L 11.5625 -1.28125 L 11.5625 0 L 7.265625 0 L 7.265625 -1.28125 L 8.515625 -1.28125 C 8.421875 -1.539062 8.320312 -1.800781 8.21875 -2.0625 C 8.125 -2.320312 8.023438 -2.582031 7.921875 -2.84375 L 3.6875 -2.84375 C 3.582031 -2.582031 3.472656 -2.320312 3.359375 -2.0625 C 3.242188 -1.800781 3.132812 -1.539062 3.03125 -1.28125 L 4.1875 -1.28125 L 4.1875 0 Z M -0.109375 0 "/></g></g></g><g fill="#a7db28" fill-opacity="1"><g transform="translate(184.299639, 147.980409)"><g><path d="M 4.703125 -1.28125 L 4.703125 0 L 0.59375 0 L 0.609375 -0.640625 L 0.609375 -1.28125 L 1.8125 -1.28125 L 1.8125 -8.828125 L 0.609375 -8.828125 L 0.609375 -10.109375 L 3.671875 -10.109375 C 4.679688 -8.785156 5.691406 -7.457031 6.703125 -6.125 C 7.722656 -4.800781 8.742188 -3.476562 9.765625 -2.15625 L 9.765625 -8.828125 L 8.5625 -8.828125 L 8.5625 -10.109375 L 12.578125 -10.109375 L 12.578125 -8.828125 L 11.453125 -8.828125 L 11.453125 0 L 9.484375 0 C 8.484375 -1.300781 7.488281 -2.597656 6.5 -3.890625 C 5.507812 -5.179688 4.515625 -6.472656 3.515625 -7.765625 L 3.515625 -1.28125 Z M 4.703125 -1.28125 "/></g></g></g><g fill="#a7db28" fill-opacity="1"><g transform="translate(198.180372, 147.980409)"><g><path d="M 0.890625 0 L 0.890625 -1.28125 L 2.125 -1.28125 L 2.125 -8.828125 L 0.890625 -8.828125 L 0.890625 -10.109375 L 8.734375 -10.109375 L 8.734375 -7.8125 L 7.40625 -7.8125 L 7.40625 -8.828125 L 3.828125 -8.828125 L 3.828125 -5.859375 L 7.8125 -5.859375 L 7.8125 -4.578125 L 3.828125 -4.578125 L 3.828125 -1.28125 L 7.90625 -1.28125 L 7.90625 -2.296875 L 9.21875 -2.296875 L 9.21875 0 Z M 0.890625 0 "/></g></g></g><g fill="#a7db28" fill-opacity="1"><g transform="translate(208.856874, 147.980409)"><g><path d="M 0.59375 0 L 0.59375 -1.28125 L 1.84375 -1.28125 L 1.84375 -8.828125 L 0.59375 -8.828125 L 0.59375 -10.109375 L 4.78125 -10.109375 L 4.78125 -8.828125 L 3.546875 -8.828125 L 3.546875 -1.28125 L 7.515625 -1.28125 L 7.515625 -2.296875 L 8.828125 -2.296875 L 8.828125 0 Z M 0.59375 0 "/></g></g></g></svg>